<?xml version="1.0" encoding="utf-8"?>
<!-- Generator: Adobe Illustrator 18.0.0, SVG Export Plug-In . SVG Version: 6.00 Build 0)  -->
<!DOCTYPE svg PUBLIC "-//W3C//DTD SVG 1.1//EN" "http://www.w3.org/Graphics/SVG/1.1/DTD/svg11.dtd">
<svg version="1.1" id="Layer_1" xmlns="http://www.w3.org/2000/svg" xmlns:xlink="http://www.w3.org/1999/xlink" x="0px" y="0px"
	 viewBox="0 0 384.3 53.8" enable-background="new 0 0 384.3 53.8" xml:space="preserve">
<path fill="#FFFFFF" d="M79.6,41.5h4.9c8.8,0,15.5-3.4,15.5-13.2c0-8.5-6.8-12.4-14.8-12.4h-5.6V41.5z M70.1,7.1h14.3
	c13.9,0,25.5,5.9,25.5,21.7c0,14-11.4,21.4-24.3,21.4H70.1V7.1z"/>
<path fill="#FFFFFF" d="M114.8,20.7h9.1v4.8h0.1c1.9-3.6,4.5-5.5,8.5-5.5c1,0,2.2,0.1,3,0.3v8.3c-1.3-0.4-2.6-0.6-3.9-0.6
	c-6.9,0-7.8,4-7.8,9.9v12.4h-9.1V20.7z"/>
<path fill="#FFFFFF" d="M158.9,32.1c0.1-3-2.3-5.6-5.6-5.6c-4,0-6.2,2.7-6.5,5.6H158.9z M166.7,45.1c-2.9,3.7-7.7,5.9-12.5,5.9
	c-9.1,0-16.5-6.1-16.5-15.5c0-9.4,7.3-15.5,16.5-15.5c8.5,0,13.9,6.1,13.9,15.5v2.9h-21.2c0.7,3.5,3.4,5.7,6.9,5.7
	c3,0,5-1.5,6.5-3.6L166.7,45.1z"/>
<path fill="#FFFFFF" d="M188.9,37.3c-2.8,0-9,0.2-9,4.3c0,2.2,2.3,3.2,4.3,3.2c3.6,0,6.9-1.9,6.9-5.5v-2L188.9,37.3L188.9,37.3z
	 M191.1,46.5H191c-2,3.2-5.7,4.4-9.4,4.4c-5.5,0-10.5-3.2-10.5-9.1c0-10.2,12.4-10.4,20-10.4c0-3.2-2.7-5.3-5.9-5.3
	c-3,0-5.5,1.3-7.4,3.5l-4.9-5c3.4-3.2,8.2-4.8,13-4.8c10.7,0,13.5,5.4,13.5,15.3v15.1h-8.4V46.5z"/>
<path fill="#FFFFFF" d="M205.3,20.7h8.8v4h0.1c1.2-2.3,4.2-4.8,8.7-4.8c4.1,0,7.6,1.7,9.1,5.3c2.1-3.8,5-5.3,9.4-5.3
	c8,0,10.5,5.7,10.5,12.9v17.5h-9.1V33c0-2.7-1-5.1-4-5.1c-4.2,0-5.5,3-5.5,6.6v15.7H224V34.6c0-2.2,0.1-6.6-4.1-6.6
	c-4.8,0-5.5,3.7-5.5,7.6v14.7h-9.1L205.3,20.7L205.3,20.7z"/>
<polygon fill="#FFFFFF" points="257.6,7.1 267.1,7.1 267.1,23.2 285.6,23.2 285.6,7.1 295.1,7.1 295.1,50.3 285.6,50.3 285.6,31.6 
	267.1,31.6 267.1,50.3 257.6,50.3 "/>
<path fill="#FFFFFF" d="M315.6,43c4.6,0,7.3-3,7.3-7.5c0-4.4-2.7-7.5-7.3-7.5c-4.6,0-7.3,3-7.3,7.5C308.3,39.9,311.1,43,315.6,43
	 M315.6,19.9c9.1,0,16.5,6.1,16.5,15.5c0,9.4-7.3,15.5-16.5,15.5c-9.1,0-16.5-6.1-16.5-15.5C299.2,26,306.5,19.9,315.6,19.9"/>
<path fill="#FFFFFF" d="M353,29.4c-1.3-1.6-3.1-2.5-5.3-2.5c-1.5,0-3.4,0.7-3.4,2.4c0,4.4,15.4,0.7,15.4,11.9
	c0,7.6-7.3,9.7-13.7,9.7c-4.1,0-8.7-1-11.6-4l5.5-6.2c1.7,2.1,3.7,3.2,6.5,3.2c2.1,0,4.1-0.5,4.1-2.1c0-4.8-15.4-0.7-15.4-12
	c0-6.9,6.2-10,12.4-10c3.9,0,8.2,1,11,3.9L353,29.4z"/>
<path fill="#FFFFFF" d="M384.3,28h-8v9.9c0,3.2,0.4,5.5,4.3,5.5c1,0,2.9-0.1,3.7-0.9v7.6c-2,0.7-4.3,0.9-6.4,0.9
	c-6.1,0-10.8-2.5-10.8-9V28h-5.9v-7.3h5.9v-8.8h9.1v8.8h8V28z"/>
<path fill="#FFFFFF" d="M53.8,40.4c-4.4,2.5-9.5,3.8-15,3.7C22.7,43.8,10,30.8,10.3,15C10.4,9.7,12,4.7,14.7,0.5
	C6.1,5.3,0.2,14.3,0,24.7c-0.3,15.7,12.4,28.7,28.5,29.1C39.1,54,48.5,48.6,53.8,40.4"/>
<path fill="#3E95BE" d="M38.5,40.7c0.2,0,0.4,0,0.5,0c4.2,0,8.3-1,12-3c2.2-3.7,3.4-8,3.4-12.6C54.4,11.2,43.2,0,29.4,0
	c-4.4,0-8.5,1.1-12,3.1c-2.3,3.7-3.6,8-3.7,12.4C13.5,29.1,24.6,40.4,38.5,40.7"/>
</svg>
